<svg width="283" height="60" viewBox="0 0 283 60" fill="none" xmlns="http://www.w3.org/2000/svg">
<path d="M35.7173 57.5199C35.2088 58.1471 34.3731 58.4069 33.5986 58.1786L34.1639 56.2602L35.7173 57.5199ZM44.0915 19.1396C42.4774 13.9478 38.8673 9.60924 34.0548 7.07938C29.2423 4.54951 23.6217 4.03553 18.4298 5.64959C13.238 7.26365 8.8995 10.8738 6.36964 15.6863C3.83977 20.4988 3.32579 26.1194 4.93985 31.3112C7.2988 38.8991 14.4903 44.6609 21.5234 48.6042C24.9881 50.5468 28.3037 51.987 30.7553 52.9409C31.8441 53.3645 32.7595 53.6887 33.4363 53.9196C33.8628 53.3457 34.433 52.5597 35.0897 51.5934C36.5684 49.4176 38.4831 46.3514 40.2357 42.7868C43.7933 35.551 46.4504 26.7274 44.0915 19.1396ZM29.7677 23.5926C28.866 20.692 25.7835 19.0716 22.8829 19.9734C19.9823 20.8751 18.3619 23.9576 19.2636 26.8582C20.1654 29.7588 23.2478 31.3792 26.1485 30.4775C29.0491 29.5757 30.6695 26.4933 29.7677 23.5926ZM33.5874 22.4051C35.145 27.4153 32.3461 32.7395 27.3359 34.2971C22.3258 35.8547 17.0015 33.0558 15.4439 28.0457C13.8864 23.0355 16.6852 17.7113 21.6954 16.1537C26.7056 14.5961 32.0298 17.395 33.5874 22.4051ZM47.9112 17.9521C50.7474 27.0753 47.4858 37.109 43.826 44.5525C41.97 48.3275 39.951 51.5568 38.3985 53.8414C37.621 54.9853 36.9571 55.8966 36.485 56.5255C36.2489 56.8401 36.0608 57.0847 35.9297 57.2525C35.8641 57.3363 35.8129 57.4012 35.7772 57.4461C35.7593 57.4685 35.745 57.4857 35.7351 57.4981C35.7301 57.5043 35.7263 57.5093 35.7233 57.513C35.7219 57.5147 35.7195 57.5172 35.7195 57.5172L35.718 57.5187C35.7133 57.5159 35.6346 57.4528 34.1639 56.2602C33.6287 58.0764 33.5995 58.173 33.5974 58.178L33.5952 58.1776C33.5952 58.1776 33.5918 58.1769 33.5897 58.1763C33.5852 58.1749 33.5792 58.1729 33.5716 58.1707C33.5563 58.1661 33.5348 58.1601 33.5074 58.1518C33.4525 58.1351 33.3735 58.1106 33.272 58.0787C33.0689 58.0149 32.7752 57.92 32.4024 57.7948C31.6569 57.5443 30.5933 57.1701 29.3044 56.6686C26.7302 55.667 23.2362 54.1515 19.567 52.0943C12.332 48.0378 3.95644 41.6219 1.12018 32.4987C-0.808821 26.2938 -0.194069 19.5768 2.82943 13.8252C5.85292 8.07372 11.0375 3.75892 17.2424 1.82992C23.4472 -0.0990814 30.1643 0.515671 35.9158 3.53917C41.6674 6.56266 45.9822 11.7472 47.9112 17.9521Z" fill="#EC221F"/>
<path d="M65.328 43.752C63.3227 42.9627 61.4027 41.9813 59.568 40.808C57.7547 39.6133 56.1973 38.2053 54.896 36.584C53.9147 38.2693 52.6987 39.848 51.248 41.32C49.8187 42.792 48.1227 44.1467 46.16 45.384L42.96 43.784L39.76 38.728C42.2987 37.3413 44.2613 35.784 45.648 34.056C47.056 32.3067 48.0693 30.5787 48.688 28.872L43.696 29.32L40.496 27.72V22.056L49.648 21.256V15.176L54.96 14.696L58.16 16.296V20.488L64.272 19.944L67.472 21.544V27.208L58.448 28.008C58.704 28.6907 59.0667 29.4693 59.536 30.344C60.0267 31.2187 60.6453 32.1253 61.392 33.064C62.16 33.9813 63.0987 34.8773 64.208 35.752C65.3387 36.6053 66.6827 37.384 68.24 38.088L65.328 43.752ZM64.592 36.648C63.0133 35.944 61.6587 35.1333 60.528 34.216C59.3973 33.2987 58.448 32.3493 57.68 31.368C56.9333 30.3867 56.3253 29.4373 55.856 28.52C55.408 27.6027 55.0667 26.8027 54.832 26.12L63.952 25.32V20.296L54.64 21.128V15.048L49.968 15.464V21.544L40.816 22.344V27.368L49.68 26.568C49.4027 27.9333 48.9013 29.352 48.176 30.824C47.472 32.296 46.4693 33.7253 45.168 35.112C43.888 36.4987 42.224 37.7573 40.176 38.888L43.024 43.336C45.2853 41.9707 47.2053 40.3813 48.784 38.568C50.3627 36.7333 51.6107 34.7387 52.528 32.584C53.104 33.6293 53.8187 34.7067 54.672 35.816C55.5253 36.904 56.5493 37.96 57.744 38.984C58.96 39.9867 60.368 40.8933 61.968 41.704L64.592 36.648Z" fill="#00BAC0"/>
<path d="M85.136 42.984V40.264L84.304 39.848C84.304 39.848 84.2613 39.912 84.176 40.04C84.0907 40.168 83.9947 40.2853 83.888 40.392L82.448 39.688V45.096L77.456 45.544L74.256 43.944V33.608L72.848 32.904L71.888 25.832C71.888 25.832 72.048 25.5867 72.368 25.096C72.688 24.584 73.0933 23.8693 73.584 22.952C74.0747 22.0347 74.576 20.9573 75.088 19.72C75.6213 18.4827 76.0907 17.128 76.496 15.656L81.328 16.872L84.528 18.472C84.464 18.728 84.4 18.9733 84.336 19.208C84.272 19.4213 84.1973 19.6347 84.112 19.848L85.136 19.752V15.016L90.128 14.568L93.328 16.168V19.016L96.336 18.76L99.536 20.36V25.864L94.576 26.344C95.344 27.5813 96.24 28.808 97.264 30.024C98.3093 31.2187 99.344 32.2853 100.368 33.224L97.84 39.144L95.952 38.184V39.624L93.328 39.848V44.136L88.336 44.584L85.136 42.984ZM92.432 37.736V34.312C92.9227 35.144 93.616 36.04 94.512 37L96.784 31.72C95.7813 30.8027 94.736 29.6933 93.648 28.392C92.5813 27.0693 91.6427 25.7573 90.832 24.456L96.016 23.976V19.112L89.808 19.656V14.92L85.456 15.304V20.04L79.76 20.552C79.9733 19.9973 80.176 19.4427 80.368 18.888C80.5813 18.312 80.7627 17.7253 80.912 17.128L76.72 16.072C76.336 17.48 75.8773 18.7813 75.344 19.976C74.832 21.1707 74.3307 22.216 73.84 23.112C73.3707 23.9867 72.976 24.68 72.656 25.192C72.336 25.6827 72.176 25.928 72.176 25.928L73.04 32.104C73.04 32.104 73.1253 31.9973 73.296 31.784C73.4667 31.5493 73.6693 31.2613 73.904 30.92C74.16 30.5573 74.384 30.1947 74.576 29.832V43.592L78.928 43.208V34.216L80.752 38.216C81.2853 37.5973 81.7227 37.0107 82.064 36.456C82.4267 35.9013 82.6293 35.592 82.672 35.528V38.6L85.456 38.344V42.632L89.808 42.248V37.96L92.432 37.736ZM79.536 21.128V25.416L84.464 25C83.696 26.3867 82.8213 27.784 81.84 29.192C80.8587 30.5787 79.888 31.8053 78.928 32.872V22.664L79.536 21.128ZM89.808 29.16C90.0853 29.864 90.384 30.568 90.704 31.272C91.024 31.9547 91.3227 32.5093 91.6 32.936L89.808 33.096V29.16ZM83.696 33.64C84.016 33.0853 84.3147 32.488 84.592 31.848C84.8907 31.1867 85.1787 30.4187 85.456 29.544V33.48L83.696 33.64Z" fill="#00BAC0"/>
<path d="M116.528 40.296C115.845 41.1493 115.077 41.7787 114.224 42.184C113.392 42.5893 112.539 42.792 111.664 42.792C110.619 42.792 109.584 42.5253 108.56 41.992C107.557 41.4587 106.672 40.7227 105.904 39.784C105.157 38.824 104.613 37.7147 104.272 36.456C103.888 34.984 103.696 33.5013 103.696 32.008C103.696 30.0027 104.016 28.0827 104.656 26.248C105.317 24.4133 106.256 22.7813 107.472 21.352C108.688 19.9013 110.149 18.76 111.856 17.928C113.563 17.0747 115.461 16.648 117.552 16.648H117.648C119.931 16.648 121.925 17.0107 123.632 17.736C125.36 18.44 126.789 19.4107 127.92 20.648C129.072 21.864 129.925 23.24 130.48 24.776C131.056 26.2907 131.344 27.8693 131.344 29.512C131.344 30.9627 131.109 32.4027 130.64 33.832C130.192 35.2613 129.509 36.5947 128.592 37.832C127.696 39.0693 126.565 40.1467 125.2 41.064C123.856 42.0027 122.277 42.696 120.464 43.144L117.264 41.512L116.528 40.296ZM117.424 41.128C119.131 40.7867 120.635 40.1787 121.936 39.304C123.237 38.408 124.325 37.3413 125.2 36.104C126.096 34.8453 126.768 33.5013 127.216 32.072C127.664 30.6213 127.888 29.1707 127.888 27.72C127.888 26.3333 127.675 25 127.248 23.72C126.843 22.4187 126.213 21.2667 125.36 20.264C124.507 19.2613 123.44 18.4613 122.16 17.864C120.88 17.2667 119.376 16.968 117.648 16.968H117.552C115.504 16.968 113.648 17.384 111.984 18.216C110.341 19.0267 108.923 20.136 107.728 21.544C106.533 22.952 105.616 24.5627 104.976 26.376C104.357 28.168 104.048 30.0453 104.048 32.008C104.048 32.7333 104.091 33.4587 104.176 34.184C104.261 34.9093 104.4 35.6347 104.592 36.36C104.976 37.768 105.573 38.8667 106.384 39.656C107.195 40.424 108.091 40.808 109.072 40.808C109.947 40.808 110.843 40.4667 111.76 39.784C112.699 39.08 113.552 37.9707 114.32 36.456C114.704 35.688 115.099 34.7387 115.504 33.608C115.909 32.4773 116.304 31.24 116.688 29.896C117.072 28.552 117.424 27.176 117.744 25.768C118.064 24.3387 118.331 22.952 118.544 21.608C119.611 21.8 120.496 22.216 121.2 22.856C121.925 23.4747 122.469 24.2213 122.832 25.096C123.195 25.9707 123.376 26.9093 123.376 27.912C123.376 28.8933 123.195 29.8747 122.832 30.856C122.469 31.8373 121.925 32.744 121.2 33.576C120.496 34.408 119.6 35.1013 118.512 35.656C117.424 36.1893 116.144 36.5093 114.672 36.616L117.424 41.128ZM114 22.088C113.765 23.624 113.467 25.1493 113.104 26.664C112.741 28.1787 112.336 29.5973 111.888 30.92C111.461 32.2213 110.992 33.3413 110.48 34.28C110.139 34.9413 109.787 35.272 109.424 35.272C109.061 35.272 108.784 34.9093 108.592 34.184C108.4 33.4373 108.304 32.648 108.304 31.816C108.304 30.536 108.517 29.2453 108.944 27.944C109.392 26.6427 110.043 25.4693 110.896 24.424C111.749 23.3787 112.784 22.6 114 22.088ZM121.712 23.752C121.541 24.9467 121.307 26.2267 121.008 27.592C120.731 28.9573 120.411 30.2907 120.048 31.592C119.685 32.8933 119.301 34.056 118.896 35.08C119.856 34.3973 120.656 33.6933 121.296 32.968C121.957 32.2213 122.448 31.2507 122.768 30.056C122.96 29.352 123.056 28.648 123.056 27.944C123.056 27.112 122.939 26.3333 122.704 25.608C122.469 24.8827 122.139 24.264 121.712 23.752Z" fill="#00BAC0"/>
<path d="M147.184 45.032L142.192 45.48L138.992 43.88V32.648L137.712 32.072L135.984 25.992C135.984 25.992 136.155 25.7467 136.496 25.256C136.859 24.7653 137.317 24.0613 137.872 23.144C138.427 22.2267 139.003 21.128 139.6 19.848C140.197 18.568 140.752 17.1493 141.264 15.592L145.968 16.84L147.984 17.832L150.448 14.856C153.925 16.3067 156.912 17.928 159.408 19.72L160.752 19.592L163.952 21.192V26.696L158.192 27.208V27.624L160.272 27.432L163.472 29.032V34.536L158.192 34.984V36.104L161.136 35.848L164.336 37.448V42.952L147.184 44.424V45.032ZM154.672 36.744V33.096L159.952 32.648V27.784L154.672 28.232V25.32L160.432 24.808V19.944L154.736 20.456L156.368 18.632C156.368 18.632 156.197 18.5147 155.856 18.28C155.536 18.0453 155.088 17.7467 154.512 17.384C153.957 17 153.328 16.616 152.624 16.232C151.941 15.848 151.248 15.5173 150.544 15.24L147.408 18.952C148.155 19.2293 148.763 19.5173 149.232 19.816C149.701 20.1147 150.203 20.4453 150.736 20.808L144.4 21.352V26.216L150.32 25.704V28.616L144.752 29.096V33.96L150.32 33.48V37.128L144.272 37.64V42.472L160.816 41.064V36.2L154.672 36.744ZM143.664 22.44C144.389 20.84 145.019 19.0587 145.552 17.096L141.456 16.008C140.987 17.5013 140.453 18.8667 139.856 20.104C139.28 21.3413 138.715 22.408 138.16 23.304C137.627 24.1787 137.189 24.8613 136.848 25.352C136.507 25.8213 136.336 26.056 136.336 26.056L137.872 31.464C137.872 31.464 138 31.3147 138.256 31.016C138.533 30.7173 138.885 30.3013 139.312 29.768V43.528L143.664 43.144V22.44ZM147.184 28.168V28.584L150 28.328V27.944L147.184 28.168ZM147.184 35.944V37.096C147.184 37.096 147.323 37.0853 147.6 37.064C147.899 37.0213 148.229 36.9893 148.592 36.968C148.955 36.9253 149.275 36.8933 149.552 36.872C149.851 36.8507 150 36.84 150 36.84V35.72L147.184 35.944Z" fill="#00BAC0"/>
<path d="M186.608 42.792C186.48 43.1333 186.341 43.4533 186.192 43.752C186.064 44.072 185.915 44.4027 185.744 44.744L182.544 43.144L178.48 38.792C178.693 38.3653 178.875 37.9387 179.024 37.512C179.173 37.064 179.312 36.6267 179.44 36.2L176.656 36.424V36.84C176.656 38.1627 176.571 39.592 176.4 41.128C176.251 42.6853 175.963 44.2213 175.536 45.736L172.336 44.136L167.728 40.968C168.091 39.816 168.304 38.632 168.368 37.416C168.432 36.2 168.464 34.984 168.464 33.768V22.984L169.2 22.92L167.888 22.28V17.224L180.432 16.136L181.904 16.872C182.757 16.7653 183.717 16.5947 184.784 16.36C185.872 16.104 186.928 15.8053 187.952 15.464C188.976 15.1013 189.808 14.7173 190.448 14.312L193.648 15.88L196.208 20.424C195.44 20.9787 194.64 21.48 193.808 21.928C192.997 22.3547 192.133 22.7173 191.216 23.016L192.944 22.824L196.144 24.424V29.64L194.608 29.768V43.848L189.616 44.296L186.608 42.792ZM192.624 27.752V23.176L185.008 23.816V21.096C186.885 20.7973 188.368 20.4667 189.456 20.104C190.565 19.7413 191.355 19.432 191.824 19.176C192.315 18.8987 192.56 18.76 192.56 18.76L190.32 14.792C190.32 14.792 190.192 14.8987 189.936 15.112C189.701 15.304 189.264 15.5493 188.624 15.848C187.984 16.1253 187.088 16.4027 185.936 16.68C184.805 16.936 183.355 17.128 181.584 17.256L180.656 17.32V26.44C180.656 28.0187 180.624 29.512 180.56 30.92C180.496 32.3067 180.336 33.64 180.08 34.92C179.845 36.2 179.429 37.48 178.832 38.76L182.448 42.568C183.451 40.4347 184.123 38.152 184.464 35.72C184.827 33.2667 185.008 30.824 185.008 28.392L186.736 28.264V42.344L191.088 41.96V27.88L192.624 27.752ZM168.208 17.512V21.928L180.112 20.904V16.488L168.208 17.512ZM168.784 23.272V33.864C168.784 35.08 168.752 36.2853 168.688 37.48C168.624 38.6747 168.432 39.8053 168.112 40.872L172.112 43.592C172.496 42.312 172.763 40.9253 172.912 39.432C173.061 37.9387 173.136 36.5413 173.136 35.24V34.536L179.824 33.96V22.312L168.784 23.272ZM173.136 27.304L175.472 27.08V29.928L173.136 30.152V27.304Z" fill="#00BAC0"/>
<path d="M215.824 41.352L213.296 40.104C213.296 40.104 213.211 39.944 213.04 39.624C212.869 39.304 212.624 38.8773 212.304 38.344V44.84L207.312 45.288L204.112 43.688V39.592L200.816 37.96L199.92 32.584C200.432 32.392 200.965 32.1893 201.52 31.976C202.096 31.7627 202.619 31.56 203.088 31.368C203.557 31.176 203.899 31.0373 204.112 30.952V30.376L199.792 28.2C199.984 27.1547 200.123 26.0987 200.208 25.032C200.315 23.9653 200.379 22.9627 200.4 22.024C200.443 21.0853 200.464 20.2853 200.464 19.624C200.464 19.0907 200.453 18.6747 200.432 18.376C200.432 18.0773 200.432 17.928 200.432 17.928H204.112V15.72L209.104 15.272L212.304 16.872V17.192L215.184 16.936V14.76L220.176 14.312L223.376 15.912V16.2L224.496 16.104L227.696 17.704V22.76L226.736 22.824L228.08 23.496V28.552L227.024 28.648L228.24 29.256V34.312L226.8 34.44V38.376C226.8 39.4 226.747 40.2533 226.64 40.936C226.555 41.6187 226.299 42.1733 225.872 42.6C225.445 43.0267 224.731 43.3573 223.728 43.592C222.747 43.848 221.349 44.0613 219.536 44.232L216.336 42.632L215.824 41.352ZM224.72 32.424V28.008L223.28 28.136V26.792L224.56 26.664V22.248L219.856 22.664V21.256L224.176 20.872V16.456L219.856 16.84V14.664L215.504 15.048V17.224L210.896 17.64V22.056L215.504 21.64V23.048L210.512 23.496V27.912L218.928 27.176V28.52L210.64 29.224V33.64L212.56 33.48L210.512 35.24C211.109 35.9653 211.621 36.6693 212.048 37.352C212.475 38.0133 212.805 38.5573 213.04 38.984C213.275 39.3893 213.392 39.592 213.392 39.592L214.864 38.248L216.528 42.28C218.192 42.1307 219.483 41.9387 220.4 41.704C221.339 41.4907 222.011 41.192 222.416 40.808C222.821 40.4027 223.067 39.88 223.152 39.24C223.237 38.5787 223.28 37.7573 223.28 36.776V32.552L224.72 32.424ZM208.784 33.896C209.232 33.64 209.563 33.448 209.776 33.32C209.989 33.192 210.096 33.128 210.096 33.128V28.424C210.096 28.424 209.936 28.5093 209.616 28.68C209.296 28.8293 209.019 28.9573 208.784 29.064V25.096L210.096 25V20.616L208.784 20.712V15.624L204.432 16.008V21.096L203.792 21.16C203.856 20.4133 203.888 19.7733 203.888 19.24C203.888 18.9413 203.877 18.7067 203.856 18.536C203.856 18.344 203.856 18.248 203.856 18.248H200.752C200.752 18.248 200.752 18.3973 200.752 18.696C200.773 18.9947 200.784 19.4 200.784 19.912C200.784 20.872 200.741 22.0987 200.656 23.592C200.592 25.0853 200.421 26.568 200.144 28.04L202.896 29.32C202.896 29.32 202.928 29.1387 202.992 28.776C203.077 28.4133 203.173 27.944 203.28 27.368C203.408 26.792 203.515 26.1947 203.6 25.576L204.432 25.48V31.176C204.432 31.176 204.187 31.272 203.696 31.464C203.227 31.656 202.661 31.88 202 32.136C201.36 32.392 200.784 32.616 200.272 32.808L201.072 37.544C201.477 37.3733 201.936 37.1813 202.448 36.968C202.981 36.7333 203.44 36.5307 203.824 36.36C204.229 36.1893 204.432 36.104 204.432 36.104V43.336L208.784 42.952V33.896ZM217.04 36.392C217.04 36.392 216.837 36.1147 216.432 35.56C216.027 35.0053 215.451 34.248 214.704 33.288L218.928 32.936V36.2C218.928 36.4987 218.853 36.7227 218.704 36.872C218.555 37.0213 218.171 37.128 217.552 37.192L215.792 37.352L217.04 36.392Z" fill="#00BAC0"/>
<path d="M252.848 43.72C252.059 43.784 251.301 43.816 250.576 43.816C248.613 43.816 246.949 43.592 245.584 43.144C244.219 42.696 242.875 42.0987 241.552 41.352C240.997 42.632 240.453 43.6347 239.92 44.36C239.387 45.0853 239.12 45.448 239.12 45.448L235.92 43.848L231.888 38.952C231.888 38.952 232.037 38.76 232.336 38.376C232.635 37.9707 232.997 37.3733 233.424 36.584C233.851 35.7947 234.256 34.824 234.64 33.672C235.024 32.52 235.291 31.176 235.44 29.64L236.496 29.736L234.832 28.904V27.848L232.56 26.728V17.8L241.712 17V15.272L247.248 14.76L250.192 16.232L256.368 15.688L259.568 17.288V26.216L257.296 26.44V28.808L254.8 28.968L257.648 30.408V35.304L250.448 35.912V36.424L257.104 35.592L260.304 37.192L258.608 43.24L252.848 43.72ZM249.616 36.84C249.168 36.8827 248.72 36.904 248.272 36.904C247.824 36.8827 247.376 36.8933 246.928 36.936V34.024L254.128 33.416V29.16L246.928 29.768V27.496L253.776 26.92V24.552L256.048 24.328V16.04L246.928 16.84V15.112L242.032 15.56V17.288L232.88 18.088V26.376L235.152 26.184V28.552L242.032 27.944V35.72C241.179 35.1653 240.517 34.408 240.048 33.448C240.155 32.9787 240.24 32.5093 240.304 32.04C240.368 31.5493 240.421 31.048 240.464 30.536L235.696 30.024C235.547 31.496 235.291 32.7973 234.928 33.928C234.565 35.0373 234.181 35.9653 233.776 36.712C233.371 37.4587 233.019 38.024 232.72 38.408C232.443 38.792 232.304 38.984 232.304 38.984L235.92 43.336C235.92 43.336 236.187 42.952 236.72 42.184C237.275 41.4373 237.851 40.3173 238.448 38.824C239.472 39.912 240.645 40.7013 241.968 41.192C243.312 41.6827 244.944 41.928 246.864 41.928C247.291 41.928 247.728 41.9173 248.176 41.896C248.645 41.8747 249.125 41.8427 249.616 41.8L255.12 41.32L256.624 35.976L249.616 36.84ZM237.232 22.408L251.696 21.128V22.344L237.232 23.624V22.408Z" fill="#00BAC0"/>
<path d="M273.648 41.032V34.92L276.56 34.664L273.936 33.352V15.72L278.928 15.272L282.128 16.872V34.504L279.76 34.696L282.384 36.008V42.152L276.848 42.632L273.648 41.032ZM274.256 16.008V33L278.608 32.616V15.624L274.256 16.008ZM273.968 35.208V40.712L278.864 40.264V34.76L273.968 35.208Z" fill="#00BAC0"/>
<path d="M40.507 52.331C41.729 52.331 42.7213 52.279 43.484 52.175L43.263 51.915C42.6303 52.0623 41.9327 52.1707 41.17 52.24C41.118 51.9107 41.0357 51.577 40.923 51.239C40.819 50.901 40.6673 50.472 40.468 49.952C41.612 49.952 42.5783 49.8827 43.367 49.744C44.1643 49.5967 44.9097 49.367 45.603 49.055H49.035C48.8963 49.1763 48.749 49.2977 48.593 49.419H50.621L50.92 50.992C50.5993 51.2693 50.1487 51.5683 49.568 51.889C48.996 52.201 48.5453 52.435 48.216 52.591C47.2107 53.059 46.1273 53.4403 44.966 53.735C43.8047 54.021 42.4743 54.2593 40.975 54.45C40.7757 53.8607 40.4723 53.1543 40.065 52.331H40.507ZM45.369 51.265C45.499 51.3863 45.6507 51.5033 45.824 51.616C46.2573 51.46 46.6517 51.2737 47.007 51.057H45.876C45.7547 51.1177 45.5857 51.187 45.369 51.265ZM52.22 52.994L52.935 55.243C52.051 56.0923 51.0327 56.816 49.88 57.414C48.762 57.986 47.514 58.389 46.136 58.623C44.7667 58.8483 43.1547 58.9827 41.3 59.026C41.118 58.064 40.7973 57.1757 40.338 56.361C40.8753 56.4217 41.4863 56.4693 42.171 56.504C41.9803 56.1747 41.7767 55.8757 41.56 55.607C41.352 55.3297 41.092 55.0523 40.78 54.775C42.652 54.567 44.394 54.2117 46.006 53.709C47.6267 53.2063 48.9743 52.604 50.049 51.902L51.882 52.344C51.7867 52.4307 51.5353 52.6473 51.128 52.994H52.22ZM48.359 54.801L47.865 55.048C48.021 55.2127 48.1857 55.3643 48.359 55.503C48.7577 55.347 49.1563 55.113 49.555 54.801H48.359ZM46.019 56.192C45.9237 56.0967 45.837 55.997 45.759 55.893C44.9963 56.1443 44.2683 56.348 43.575 56.504C44.4243 56.4693 45.239 56.3653 46.019 56.192Z" fill="#973700"/>
<path d="M66 51.317C65.8267 51.8803 65.6793 52.396 65.558 52.864C65.4367 53.332 65.3413 53.826 65.272 54.346C65.064 54.2767 64.7693 54.164 64.388 54.008C64.388 54.9527 64.362 55.893 64.31 56.829C64.2753 57.4443 64.1367 57.8993 63.894 58.194C63.66 58.48 63.1877 58.6837 62.477 58.805C61.775 58.9263 60.6657 58.987 59.149 58.987C59.019 58.4237 58.902 57.973 58.798 57.635C58.694 57.2883 58.5423 56.9417 58.343 56.595C57.9357 57.115 57.4157 57.5787 56.783 57.986C56.159 58.3847 55.4007 58.7357 54.508 59.039L54.274 58.454C54.066 57.9167 53.8753 57.4617 53.702 57.089C53.5373 56.7163 53.338 56.3437 53.104 55.971C53.9707 55.9017 54.6813 55.7283 55.236 55.451C55.7993 55.1737 56.224 54.7707 56.51 54.242H55.73V53.397C55.0453 53.787 54.3477 54.1033 53.637 54.346C53.5677 53.826 53.4723 53.332 53.351 52.864C53.2297 52.396 53.0823 51.8803 52.909 51.317C53.637 51.2043 54.3 50.9357 54.898 50.511C55.5047 50.0777 55.9813 49.5447 56.328 48.912L59.461 49.25L62.581 48.912C62.9277 49.5447 63.4 50.0777 63.998 50.511C64.6047 50.9357 65.272 51.2043 66 51.317ZM61.034 51.759C60.3493 51.057 59.8207 50.316 59.448 49.536C59.0667 50.3507 58.5423 51.0917 57.875 51.759H61.034ZM61.255 56.01C61.307 55.62 61.333 55.2647 61.333 54.944C61.333 54.8053 61.3243 54.5713 61.307 54.242H59.513C59.279 55.022 58.9757 55.6893 58.603 56.244C59.487 56.3133 60.0807 56.348 60.384 56.348C60.6353 56.348 60.8173 56.335 60.93 56.309C61.0513 56.283 61.1293 56.2483 61.164 56.205C61.2073 56.1617 61.2377 56.0967 61.255 56.01Z" fill="#973700"/>
<path d="M69.445 59.65C68.9163 59.0693 67.898 58.2373 66.39 57.154L67.755 55.49C68.301 55.802 68.8817 56.1703 69.497 56.595C70.1123 57.0197 70.6107 57.4053 70.992 57.752L69.445 59.65Z" fill="#973700"/>
<path d="M79.2998 51.694H84.1358V52.747H71.6298V51.694H76.4658V51.486H72.2668V49.354H76.4658V49.016H79.2998V49.354H83.4988V51.486H79.2998V51.694ZM74.7758 50.342V50.563H76.4658V50.342H74.7758ZM80.9898 50.563V50.342H79.2998V50.563H80.9898ZM84.4348 57.765C83.9408 58.181 83.4122 58.6707 82.8488 59.234C80.9682 58.818 79.3258 58.48 77.9218 58.22C75.9198 58.688 74.2645 59.013 72.9558 59.195C72.5052 58.7097 71.9375 58.1897 71.2528 57.635C72.8042 57.6177 74.2602 57.505 75.6208 57.297H72.2928V52.968H83.4728V57.297H80.3268C82.0255 57.4703 83.3948 57.6263 84.4348 57.765ZM80.5218 54.19V53.969H75.2438V54.19H80.5218ZM75.2438 55.23H80.5218V55.009H75.2438V55.23ZM80.5218 56.049H75.2438V56.27H80.5218V56.049ZM76.8298 57.297L77.8828 57.973C78.3162 57.6783 78.6932 57.453 79.0138 57.297H76.8298Z" fill="#973700"/>
<path d="M96.9278 52.058H90.4928L90.4798 52.37H96.1478V55.919C96.1478 56.9417 96.0352 57.6437 95.8098 58.025C95.5845 58.4063 95.1035 58.6533 94.3668 58.766C93.6388 58.87 92.2868 58.922 90.3108 58.922C90.1028 58.3673 89.9338 57.9383 89.8038 57.635C89.6738 57.323 89.5005 56.9937 89.2838 56.647C88.8505 57.2537 88.3088 57.7737 87.6588 58.207C87.0175 58.6317 86.3112 58.9307 85.5398 59.104C85.3925 58.5147 85.2192 57.9903 85.0198 57.531C84.8205 57.063 84.5345 56.5603 84.1618 56.023C84.7858 55.971 85.3015 55.854 85.7088 55.672C86.1161 55.4813 86.4628 55.2127 86.7488 54.866C86.9395 54.6407 87.0695 54.3547 87.1388 54.008C87.2168 53.6613 87.2558 53.2193 87.2558 52.682L87.2428 52.058H84.9678V49.64H89.2838V48.99H92.4818V49.64H96.9278V52.058ZM92.9108 54.723H90.1418C90.0205 55.1823 89.8558 55.6243 89.6478 56.049C90.8352 56.0923 91.5892 56.114 91.9098 56.114C92.2218 56.114 92.4472 56.101 92.5858 56.075C92.7245 56.049 92.8112 56.0057 92.8458 55.945C92.8892 55.8843 92.9108 55.7847 92.9108 55.646V54.723Z" fill="#973700"/>
<path d="M103.896 49.133C105.04 49.133 106.071 49.3497 106.99 49.783C107.908 50.2077 108.628 50.797 109.148 51.551C109.676 52.305 109.941 53.15 109.941 54.086C109.941 54.9527 109.741 55.7457 109.343 56.465C108.944 57.1757 108.385 57.765 107.666 58.233C106.955 58.701 106.136 59.0087 105.209 59.156C104.81 58.454 104.286 57.8733 103.636 57.414C103.315 57.83 102.942 58.1333 102.518 58.324C102.093 58.5147 101.599 58.61 101.036 58.61C99.9612 58.61 99.1161 58.298 98.5008 57.674C97.8941 57.0413 97.5908 56.1747 97.5908 55.074C97.5908 53.9733 97.8682 52.9723 98.4228 52.071C98.9775 51.161 99.7358 50.446 100.698 49.926C101.66 49.3973 102.726 49.133 103.896 49.133ZM104.117 56.608C105.035 56.426 105.685 56.1227 106.067 55.698C106.448 55.2733 106.639 54.697 106.639 53.969C106.639 52.9463 106.162 52.2573 105.209 51.902C105.087 52.9767 104.936 53.8997 104.754 54.671C104.58 55.4337 104.368 56.0793 104.117 56.608ZM101.205 55.503C101.387 55.503 101.53 55.4207 101.634 55.256C101.746 55.0827 101.855 54.7533 101.959 54.268C102.063 53.774 102.184 53.0027 102.323 51.954C101.785 52.1793 101.365 52.5217 101.062 52.981C100.758 53.4403 100.607 53.9733 100.607 54.58C100.607 55.1953 100.806 55.503 101.205 55.503Z" fill="#973700"/>
<path d="M118.781 53.072C119.405 54.6147 120.947 55.633 123.409 56.127C123.001 56.5863 122.685 57.0413 122.46 57.492C122.234 57.9427 121.979 58.5407 121.693 59.286C120.757 59.0087 119.851 58.5363 118.976 57.869C118.109 57.193 117.411 56.348 116.883 55.334C116.354 56.3393 115.652 57.18 114.777 57.856C113.901 58.532 113 59.0087 112.073 59.286C111.787 58.5407 111.531 57.9427 111.306 57.492C111.08 57.0413 110.764 56.5863 110.357 56.127C112.809 55.6503 114.343 54.632 114.959 53.072H110.955V50.199H115.284L115.297 49.003L118.482 49.029L118.469 50.199H122.811V53.072H118.781Z" fill="#973700"/>
<path d="M136.383 54.32C136.036 54.9873 135.806 56.062 135.694 57.544C135.33 57.3013 135.026 57.0673 134.784 56.842V58.311H132.886V59.104H130.221V58.311H128.401V56.855C128.071 57.167 127.811 57.3967 127.621 57.544C127.543 56.582 127.43 55.828 127.283 55.282V59.039H124.41V56.205C124.271 56.2743 124.115 56.3307 123.942 56.374C123.881 55.6113 123.807 54.9917 123.721 54.515C123.643 54.0383 123.482 53.5183 123.24 52.955C123.777 52.955 124.167 52.8423 124.41 52.617C124.488 52.539 124.535 52.4783 124.553 52.435C124.631 52.279 124.67 51.8197 124.67 51.057C124.67 50.4503 124.644 49.822 124.592 49.172L127.712 49.185L127.686 49.796H130.221V49.016H132.886V49.796H135.707V52.305H133.588C133.943 52.8597 134.355 53.293 134.823 53.605C135.291 53.917 135.811 54.1553 136.383 54.32ZM127.283 54.177C128.227 53.7437 128.955 53.1197 129.467 52.305H127.673V50.108C127.638 50.7753 127.595 51.3603 127.543 51.863C127.491 52.357 127.404 52.799 127.283 53.189V54.177ZM130.221 55.893V54.346C129.926 54.9267 129.605 55.4423 129.259 55.893H130.221ZM132.886 55.893H133.848C133.466 55.4337 133.146 54.957 132.886 54.463V55.893Z" fill="#973700"/>
<path d="M142.896 49.133C144.04 49.133 145.071 49.3497 145.99 49.783C146.908 50.2077 147.628 50.797 148.148 51.551C148.676 52.305 148.941 53.15 148.941 54.086C148.941 54.9527 148.741 55.7457 148.343 56.465C147.944 57.1757 147.385 57.765 146.666 58.233C145.955 58.701 145.136 59.0087 144.209 59.156C143.81 58.454 143.286 57.8733 142.636 57.414C142.315 57.83 141.942 58.1333 141.518 58.324C141.093 58.5147 140.599 58.61 140.036 58.61C138.961 58.61 138.116 58.298 137.501 57.674C136.894 57.0413 136.591 56.1747 136.591 55.074C136.591 53.9733 136.868 52.9723 137.423 52.071C137.977 51.161 138.736 50.446 139.698 49.926C140.66 49.3973 141.726 49.133 142.896 49.133ZM143.117 56.608C144.035 56.426 144.685 56.1227 145.067 55.698C145.448 55.2733 145.639 54.697 145.639 53.969C145.639 52.9463 145.162 52.2573 144.209 51.902C144.087 52.9767 143.936 53.8997 143.754 54.671C143.58 55.4337 143.368 56.0793 143.117 56.608ZM140.205 55.503C140.387 55.503 140.53 55.4207 140.634 55.256C140.746 55.0827 140.855 54.7533 140.959 54.268C141.063 53.774 141.184 53.0027 141.323 51.954C140.785 52.1793 140.365 52.5217 140.062 52.981C139.758 53.4403 139.607 53.9733 139.607 54.58C139.607 55.1953 139.806 55.503 140.205 55.503Z" fill="#973700"/>
<path d="M159.185 56.27H162.058V58.909H153.517V56.27H156.312V55.763H153.751V53.254H156.312V52.656H153.595V50.264H156.195C155.848 50.1253 155.523 50.0127 155.22 49.926C155.618 49.7873 155.965 49.6573 156.26 49.536C156.554 49.406 156.957 49.2197 157.469 48.977C157.833 49.1243 158.171 49.2803 158.483 49.445C158.795 49.6097 159.18 49.822 159.64 50.082L159.25 50.264H161.915V52.656H159.185V53.254H161.72V55.763H159.185V56.27ZM153.634 49.185C153.599 50.1903 153.556 50.9833 153.504 51.564C153.452 52.1447 153.356 52.682 153.218 53.176V59.039H150.384V56.192C150.141 56.2873 149.981 56.3437 149.903 56.361C149.851 55.6157 149.786 55.0003 149.708 54.515C149.63 54.0297 149.474 53.5097 149.24 52.955C149.595 52.955 149.872 52.9073 150.072 52.812C150.28 52.7167 150.423 52.5953 150.501 52.448C150.544 52.3613 150.574 52.1837 150.592 51.915C150.618 51.6463 150.631 51.33 150.631 50.966C150.631 50.3767 150.605 49.7787 150.553 49.172L153.634 49.185Z" fill="#973700"/>
<path d="M175.058 51.72V53.943H174.59V59.052H171.964V53.943H171.535C171.457 54.983 171.288 55.8323 171.028 56.491C170.776 57.1497 170.391 57.6957 169.871 58.129C169.359 58.5537 168.653 58.9133 167.752 59.208C167.405 58.7227 167.084 58.3197 166.79 57.999C166.504 57.6697 166.131 57.3447 165.672 57.024C166.322 56.92 166.859 56.777 167.284 56.595C167.717 56.413 168.064 56.179 168.324 55.893H165.607C165.598 56.647 165.563 57.245 165.503 57.687C165.451 58.1203 165.342 58.5667 165.178 59.026C164.779 58.8787 164.328 58.7443 163.826 58.623C163.323 58.493 162.829 58.3933 162.344 58.324C162.595 57.8733 162.764 57.3577 162.851 56.777C162.937 56.1877 162.981 55.2733 162.981 54.034V51.616H168.675V55.399C168.857 55.061 168.978 54.6667 169.039 54.216C169.108 53.7567 169.143 53.1977 169.143 52.539C169.143 52.1057 169.138 51.772 169.13 51.538L169.091 49.328L174.902 49.055L174.889 49.64V51.239L171.613 51.408V51.72H175.058ZM162.851 49.172H168.727V51.291H162.851V49.172ZM166.79 53.969V53.436H165.62V53.969H166.79Z" fill="#973700"/>
<path d="M187.928 51.98C187.893 52.6733 187.876 53.1587 187.876 53.436C187.876 53.7307 187.893 54.1727 187.928 54.762C186.827 54.7967 185.835 54.879 184.951 55.009C184.951 55.3297 184.92 55.6373 184.86 55.932L182.065 56.296C182.143 56.1227 182.203 55.9277 182.247 55.711C181.935 55.8843 181.731 56.036 181.636 56.166C181.584 56.244 181.558 56.3047 181.558 56.348C181.558 56.53 181.861 56.621 182.468 56.621C182.71 56.621 182.992 56.608 183.313 56.582L184.496 56.504C184.686 56.4953 185.05 56.478 185.588 56.452C186.134 56.4173 186.762 56.374 187.473 56.322C187.256 56.79 187.1 57.2147 187.005 57.596C186.909 57.9687 186.818 58.428 186.732 58.974C184.86 59.052 183.568 59.091 182.858 59.091C181.809 59.091 180.955 59.0173 180.297 58.87C179.647 58.714 179.161 58.4627 178.841 58.116C178.52 57.7607 178.36 57.2797 178.36 56.673C178.36 56.1443 178.607 55.633 179.101 55.139C179.603 54.6363 180.305 54.1683 181.207 53.735C181.016 53.6743 180.786 53.644 180.518 53.644C180.318 53.644 179.985 53.8043 179.517 54.125C179.057 54.4457 178.555 54.8877 178.009 55.451C177.471 56.0143 176.982 56.6427 176.54 57.336C176.219 56.218 175.764 55.217 175.175 54.333C176.241 53.527 177.164 52.7427 177.944 51.98C177.146 51.9627 176.553 51.9453 176.163 51.928C176.163 50.8273 176.115 50.004 176.02 49.458C177.666 49.51 179.018 49.536 180.076 49.536L180.336 49.198L180.505 48.977L183.924 49.055L183.547 49.51C184.821 49.4667 185.895 49.4103 186.771 49.341C186.693 49.809 186.654 50.5067 186.654 51.434V51.824C185.224 51.928 183.434 51.9887 181.285 52.006L180.856 52.396C181.22 52.344 181.562 52.318 181.883 52.318C182.663 52.318 183.304 52.474 183.807 52.786C185.15 52.4133 186.524 52.1447 187.928 51.98Z" fill="#973700"/>
<path d="M200.798 50.849V59.065H197.717V58.857H189.046V56.517H197.717V55.984H189.306V53.722H197.717V53.163H189.046V50.849H190.32L190.008 49.25L192.803 48.964C192.872 49.4927 192.972 50.121 193.102 50.849H193.544V48.99H196.352V50.849H196.794C196.915 50.1643 197.019 49.536 197.106 48.964L199.888 49.25C199.818 49.666 199.719 50.199 199.589 50.849H200.798Z" fill="#973700"/>
<path d="M211.328 51.876C210.548 51.9107 209.885 52.0797 209.339 52.383C208.793 52.6863 208.381 53.0677 208.104 53.527C207.835 53.9777 207.701 54.4457 207.701 54.931C207.701 55.191 207.757 55.3947 207.87 55.542C207.991 55.6893 208.234 55.802 208.598 55.88C208.962 55.958 209.508 55.997 210.236 55.997C211.042 55.997 211.947 55.9623 212.953 55.893C212.727 56.4043 212.584 56.881 212.524 57.323C212.472 57.7563 212.441 58.2807 212.433 58.896C212.19 58.9047 211.839 58.909 211.38 58.909C209.421 58.909 207.917 58.779 206.869 58.519C205.829 58.2503 205.127 57.8907 204.763 57.44C204.407 56.9807 204.23 56.4 204.23 55.698C204.23 54.944 204.386 54.2593 204.698 53.644C205.01 53.02 205.447 52.4697 206.011 51.993L202.098 52.591V49.575C202.765 49.575 203.9 49.5533 205.504 49.51L208.013 49.445C208.905 49.4277 209.729 49.406 210.483 49.38C211.237 49.3453 212.272 49.2933 213.59 49.224L213.629 51.876H211.328Z" fill="#973700"/>
<path d="M225.355 58.818C224.661 58.2633 223.808 57.7347 222.794 57.232C222.75 57.7347 222.629 58.1203 222.43 58.389C222.23 58.649 221.91 58.831 221.468 58.935C221.034 59.039 220.41 59.091 219.596 59.091C218.122 59.091 217.043 58.8613 216.359 58.402C215.683 57.9427 215.345 57.336 215.345 56.582C215.345 55.906 215.639 55.373 216.229 54.983C216.827 54.593 217.698 54.398 218.842 54.398C219.067 54.398 219.388 54.4067 219.804 54.424V54.086C218.114 54.0687 216.601 54.0383 215.267 53.995L215.28 51.902C216.623 51.9453 218.131 51.9757 219.804 51.993V51.616C218.374 51.5987 217.078 51.5683 215.917 51.525L215.904 49.471C217.056 49.5143 218.356 49.5447 219.804 49.562V49.016H222.82V49.549C223.851 49.5403 224.887 49.5143 225.927 49.471L225.94 51.525C224.9 51.5597 223.86 51.5857 222.82 51.603V51.993C223.652 51.9843 224.908 51.954 226.59 51.902L226.577 53.995C224.887 54.047 223.634 54.0773 222.82 54.086V54.853C224.189 55.1997 225.493 55.7153 226.733 56.4L225.355 58.818ZM219.804 56.101C219.552 56.0403 219.327 56.01 219.128 56.01C218.885 56.01 218.699 56.0447 218.569 56.114C218.439 56.1747 218.374 56.2527 218.374 56.348C218.374 56.452 218.452 56.5473 218.608 56.634C218.764 56.712 218.976 56.751 219.245 56.751C219.418 56.751 219.552 56.712 219.648 56.634C219.752 56.556 219.804 56.413 219.804 56.205V56.101Z" fill="#973700"/>
<path d="M240.045 51.902C239.455 51.8847 238.58 51.8673 237.419 51.85L237.406 54.203C237.432 54.2723 237.462 54.385 237.497 54.541C237.557 54.8877 237.588 55.1693 237.588 55.386C237.588 56.6167 236.981 57.544 235.768 58.168C234.563 58.792 232.739 59.0867 230.295 59.052L230.048 58.636C229.762 58.1507 229.497 57.7347 229.255 57.388C229.012 57.0413 228.691 56.6643 228.293 56.257C229.757 56.465 230.932 56.569 231.816 56.569C232.977 56.569 233.718 56.3913 234.039 56.036C233.683 56.1227 233.402 56.1877 233.194 56.231C232.994 56.2657 232.765 56.283 232.505 56.283C232.071 56.283 231.642 56.205 231.218 56.049C230.802 55.8843 230.455 55.6547 230.178 55.36C229.909 55.0567 229.775 54.7143 229.775 54.333C229.775 53.865 229.926 53.4707 230.23 53.15C230.542 52.8207 230.94 52.578 231.426 52.422C231.911 52.266 232.422 52.188 232.96 52.188C233.462 52.188 233.956 52.2227 234.442 52.292L234.429 51.876C232.167 51.928 229.965 52.045 227.825 52.227L227.682 49.627C230.238 49.5403 232.457 49.484 234.338 49.458L234.325 49.029H237.432V49.458C238.342 49.458 239.26 49.471 240.188 49.497L240.045 51.902ZM233.415 54.502C233.605 54.502 233.783 54.476 233.948 54.424C234.112 54.3633 234.195 54.2853 234.195 54.19C234.195 54.0513 234.13 53.956 234 53.904C233.878 53.8433 233.692 53.813 233.441 53.813C232.947 53.813 232.7 53.93 232.7 54.164C232.7 54.2593 232.76 54.3417 232.882 54.411C233.012 54.4717 233.189 54.502 233.415 54.502Z" fill="#973700"/>
<path d="M242.541 59.455C242.22 59.455 241.925 59.3727 241.657 59.208C241.388 59.052 241.171 58.8397 241.007 58.571C240.851 58.3023 240.773 58.0077 240.773 57.687C240.773 57.3663 240.851 57.0717 241.007 56.803C241.171 56.5343 241.388 56.322 241.657 56.166C241.925 56.0013 242.22 55.919 242.541 55.919C242.861 55.919 243.156 56.0013 243.425 56.166C243.693 56.322 243.906 56.5343 244.062 56.803C244.226 57.0717 244.309 57.3663 244.309 57.687C244.309 58.0077 244.226 58.3023 244.062 58.571C243.906 58.8397 243.693 59.052 243.425 59.208C243.156 59.3727 242.861 59.455 242.541 59.455ZM242.541 58.584C242.792 58.584 243.004 58.4973 243.178 58.324C243.351 58.142 243.438 57.9297 243.438 57.687C243.438 57.4357 243.351 57.2233 243.178 57.05C243.004 56.8767 242.792 56.79 242.541 56.79C242.298 56.79 242.086 56.8767 241.904 57.05C241.73 57.2233 241.644 57.4357 241.644 57.687C241.644 57.9297 241.73 58.142 241.904 58.324C242.086 58.4973 242.298 58.584 242.541 58.584Z" fill="#973700"/>
</svg>
