<svg width="1920" height="1080" viewBox="0 0 1920 1080" fill="none" xmlns="http://www.w3.org/2000/svg">
<path d="M0 0H1920V1080H0V0Z" fill="#D9D9D9"/>
<path d="M480.591 446.818V633H438.409L371.136 535.182H370.045V633H319.5V446.818H362.409L428.591 544.273H430.045V446.818H480.591Z" fill="#8C8C8C"/>
<path d="M684.864 539.909C684.864 560.636 680.833 578.121 672.773 592.364C664.712 606.545 653.833 617.303 640.136 624.636C626.439 631.909 611.167 635.545 594.318 635.545C577.348 635.545 562.015 631.879 548.318 624.545C534.682 617.152 523.833 606.364 515.773 592.182C507.773 577.939 503.773 560.515 503.773 539.909C503.773 519.182 507.773 501.727 515.773 487.545C523.833 473.303 534.682 462.545 548.318 455.273C562.015 447.939 577.348 444.273 594.318 444.273C611.167 444.273 626.439 447.939 640.136 455.273C653.833 462.545 664.712 473.303 672.773 487.545C680.833 501.727 684.864 519.182 684.864 539.909ZM632.864 539.909C632.864 528.758 631.379 519.364 628.409 511.727C625.5 504.03 621.167 498.212 615.409 494.273C609.712 490.273 602.682 488.273 594.318 488.273C585.955 488.273 578.894 490.273 573.136 494.273C567.439 498.212 563.106 504.03 560.136 511.727C557.227 519.364 555.773 528.758 555.773 539.909C555.773 551.061 557.227 560.485 560.136 568.182C563.106 575.818 567.439 581.636 573.136 585.636C578.894 589.576 585.955 591.545 594.318 591.545C602.682 591.545 609.712 589.576 615.409 585.636C621.167 581.636 625.5 575.818 628.409 568.182C631.379 560.485 632.864 551.061 632.864 539.909Z" fill="#8C8C8C"/>
<path d="M809.795 446.818V633H759.25V446.818H809.795Z" fill="#8C8C8C"/>
<path d="M833.75 446.818H896.659L939.932 552.273H942.114L985.386 446.818H1048.3V633H998.841V525.364H997.386L955.932 631.545H926.114L884.659 524.636H883.205V633H833.75V446.818Z" fill="#8C8C8C"/>
<path d="M1120.61 633H1066.07L1127.52 446.818H1196.61L1258.07 633H1203.52L1162.8 498.091H1161.34L1120.61 633ZM1110.43 559.545H1212.98V597.364H1110.43V559.545Z" fill="#8C8C8C"/>
<path d="M1388.16 508.273C1387.37 505.061 1386.13 502.242 1384.43 499.818C1382.73 497.333 1380.61 495.242 1378.07 493.545C1375.58 491.788 1372.67 490.485 1369.34 489.636C1366.07 488.727 1362.46 488.273 1358.52 488.273C1350.04 488.273 1342.8 490.303 1336.8 494.364C1330.86 498.424 1326.31 504.273 1323.16 511.909C1320.07 519.545 1318.52 528.758 1318.52 539.545C1318.52 550.455 1320.01 559.788 1322.98 567.545C1325.95 575.303 1330.37 581.242 1336.25 585.364C1342.13 589.485 1349.43 591.545 1358.16 591.545C1365.86 591.545 1372.25 590.424 1377.34 588.182C1382.49 585.939 1386.34 582.758 1388.89 578.636C1391.43 574.515 1392.7 569.667 1392.7 564.091L1401.43 565H1358.89V529H1441.43V554.818C1441.43 571.788 1437.83 586.303 1430.61 598.364C1423.46 610.364 1413.58 619.576 1400.98 626C1388.43 632.364 1374.04 635.545 1357.8 635.545C1339.67 635.545 1323.77 631.697 1310.07 624C1296.37 616.303 1285.67 605.333 1277.98 591.091C1270.34 576.848 1266.52 559.909 1266.52 540.273C1266.52 524.879 1268.86 511.242 1273.52 499.364C1278.25 487.485 1284.8 477.455 1293.16 469.273C1301.52 461.03 1311.19 454.818 1322.16 450.636C1333.13 446.394 1344.89 444.273 1357.43 444.273C1368.46 444.273 1378.7 445.848 1388.16 449C1397.67 452.091 1406.07 456.515 1413.34 462.273C1420.67 467.97 1426.58 474.727 1431.07 482.545C1435.55 490.364 1438.28 498.939 1439.25 508.273H1388.16Z" fill="#8C8C8C"/>
<path d="M1465 633V446.818H1599.18V487.545H1515.55V519.545H1592.27V560.273H1515.55V592.273H1598.82V633H1465Z" fill="#8C8C8C"/>
</svg>
