<svg width="1920" height="1080" viewBox="0 0 1920 1080" fill="none" xmlns="http://www.w3.org/2000/svg">
<path d="M0 0H1920V1080H0V0Z" fill="black"/>
<path d="M304.648 412.455V667H246.977L155.003 533.264H153.511V667H84.4062V412.455H143.071L233.554 545.693H235.543V412.455H304.648Z" fill="#0091FF"/>
<path d="M583.927 539.727C583.927 568.065 578.417 591.97 567.396 611.442C556.376 630.832 541.503 645.539 522.776 655.565C504.05 665.509 483.169 670.48 460.134 670.48C436.933 670.48 415.97 665.467 397.244 655.441C378.6 645.332 363.768 630.583 352.748 611.194C341.81 591.722 336.342 567.9 336.342 539.727C336.342 511.389 341.81 487.526 352.748 468.136C363.768 448.664 378.6 433.957 397.244 424.013C415.97 413.987 436.933 408.974 460.134 408.974C483.169 408.974 504.05 413.987 522.776 424.013C541.503 433.957 556.376 448.664 567.396 468.136C578.417 487.526 583.927 511.389 583.927 539.727ZM512.833 539.727C512.833 524.481 510.803 511.638 506.743 501.197C502.766 490.674 496.841 482.72 488.969 477.334C481.181 471.865 471.569 469.131 460.134 469.131C448.7 469.131 439.046 471.865 431.175 477.334C423.386 482.72 417.461 490.674 413.401 501.197C409.424 511.638 407.435 524.481 407.435 539.727C407.435 554.974 409.424 567.858 413.401 578.381C417.461 588.822 423.386 596.776 431.175 602.245C439.046 607.631 448.7 610.324 460.134 610.324C471.569 610.324 481.181 607.631 488.969 602.245C496.841 596.776 502.766 588.822 506.743 578.381C510.803 567.858 512.833 554.974 512.833 539.727Z" fill="#0091FF"/>
<path d="M754.732 412.455V667H685.627V412.455H754.732Z" fill="#0091FF"/>
<path d="M787.482 412.455H873.491L932.653 556.631H935.636L994.798 412.455H1080.81V667H1013.19V519.841H1011.2L954.528 665.011H913.761L857.085 518.847H855.096V667H787.482V412.455Z" fill="#0091FF"/>
<path d="M1179.68 667H1105.1L1189.12 412.455H1283.59L1367.6 667H1293.03L1237.35 482.554H1235.36L1179.68 667ZM1165.76 566.574H1305.96V618.278H1165.76V566.574Z" fill="#0091FF"/>
<path d="M1545.46 496.474C1544.39 492.083 1542.69 488.23 1540.37 484.915C1538.05 481.518 1535.15 478.66 1531.67 476.339C1528.27 473.937 1524.29 472.155 1519.74 470.995C1515.26 469.752 1510.33 469.131 1504.95 469.131C1493.34 469.131 1483.44 471.906 1475.24 477.458C1467.12 483.01 1460.91 491.006 1456.6 501.446C1452.37 511.886 1450.26 524.481 1450.26 539.23C1450.26 554.145 1452.29 566.905 1456.35 577.511C1460.41 588.117 1466.46 596.238 1474.49 601.872C1482.53 607.507 1492.52 610.324 1504.45 610.324C1514.97 610.324 1523.71 608.791 1530.67 605.725C1537.72 602.659 1542.98 598.309 1546.46 592.675C1549.94 587.04 1551.68 580.411 1551.68 572.788L1563.61 574.031H1505.44V524.812H1618.3V560.111C1618.3 583.312 1613.37 603.156 1603.51 619.646C1593.73 636.052 1580.22 648.647 1562.99 657.43C1545.84 666.13 1526.16 670.48 1503.95 670.48C1479.18 670.48 1457.43 665.219 1438.7 654.695C1419.97 644.172 1405.35 629.174 1394.82 609.702C1384.38 590.23 1379.16 567.071 1379.16 540.224C1379.16 519.178 1382.35 500.535 1388.73 484.294C1395.2 468.054 1404.15 454.34 1415.58 443.154C1427.02 431.885 1440.23 423.392 1455.23 417.675C1470.23 411.875 1486.3 408.974 1503.45 408.974C1518.53 408.974 1532.54 411.129 1545.46 415.438C1558.47 419.663 1569.95 425.712 1579.89 433.584C1589.92 441.373 1598 450.611 1604.13 461.3C1610.26 471.989 1613.99 483.714 1615.31 496.474H1545.46Z" fill="#0091FF"/>
<path d="M1650.52 667V412.455H1833.97V468.136H1719.62V511.886H1824.53V567.568H1719.62V611.318H1833.47V667H1650.52Z" fill="#0091FF"/>
</svg>
